<svg version="1.1" id="Layer_1" xmlns="http://www.w3.org/2000/svg" xmlns:xlink="http://www.w3.org/1999/xlink" x="0px" y="0px"
	 width="100%" viewBox="0 0 1000 1800" enable-background="new 0 0 1000 1800" xml:space="preserve">
<path fill="#000000" opacity="1.000000" stroke="none" 
	d="
M1001.000000,709.000000 
	C1001.000000,1073.300903 1001.000000,1437.101807 1001.000000,1800.951416 
	C667.728821,1800.951416 334.457581,1800.951416 1.093186,1800.951416 
	C1.093186,1201.115601 1.093186,601.231201 1.093186,1.173384 
	C334.333252,1.173384 667.666626,1.173384 1001.000000,1.173384 
	C1001.000000,236.876053 1001.000000,472.688019 1001.000000,709.000000 
M797.942017,685.689331 
	C791.360168,686.125427 784.725586,687.281494 778.210632,686.804260 
	C771.045593,686.279480 766.102173,688.322144 763.162476,694.867004 
	C760.758423,700.219482 756.282471,701.790039 750.848022,702.114502 
	C748.606140,702.248413 746.345520,703.071838 744.214355,703.894836 
	C729.202515,709.691956 720.254639,722.542786 708.486694,734.195862 
	C724.018616,733.480957 738.177734,733.785400 752.009094,737.835754 
	C753.247864,738.198547 755.429138,736.944763 756.550476,735.820801 
	C760.732178,731.629333 764.839905,727.334229 768.637878,722.795593 
	C778.750244,710.711182 788.687378,698.480103 798.291016,685.981506 
	C798.155945,685.902832 798.020874,685.824097 797.885864,685.745361 
	C798.031921,685.825134 798.187622,685.891724 798.321350,685.988586 
	C798.455139,686.085449 798.567017,686.212646 797.942017,685.689331 
M551.271973,779.029358 
	C538.650513,794.196045 526.029053,809.362732 513.290649,824.669922 
	C543.622314,835.909363 573.553833,847.000549 604.572571,858.494568 
	C596.904968,848.600891 589.699036,839.753296 583.025879,830.520569 
	C579.129822,825.130127 574.716309,821.704590 567.885864,820.606689 
	C560.145996,819.362671 552.612061,816.837280 545.003540,814.872864 
	C546.678894,807.077637 548.350769,799.960266 549.701172,792.782410 
	C550.597839,788.015808 551.034729,783.162659 551.841797,779.019653 
	C552.087646,778.949585 552.333496,778.879517 552.579346,778.809448 
	C552.285767,778.703796 551.992249,778.598145 551.271973,779.029358 
M562.998108,99.498604 
	C561.547974,99.303314 560.097839,99.107735 558.647644,98.912788 
	C543.984741,96.941696 529.360413,93.727440 514.650574,93.271492 
	C488.122803,92.449211 461.567627,92.353500 435.132874,96.797760 
	C416.003174,100.013870 397.125916,103.935280 378.662354,109.775566 
	C348.695679,119.254440 320.276520,132.012512 293.501129,148.677795 
	C268.891937,163.994827 246.076874,181.467926 225.718872,201.998489 
	C215.221100,212.585266 205.665833,224.134949 196.028076,235.539688 
	C180.647858,253.739700 168.120972,273.916809 157.116089,294.954132 
	C146.100372,316.012146 137.456223,338.083679 130.463272,360.865845 
	C122.051361,388.270752 116.677261,416.291138 115.353355,444.747192 
	C114.279274,467.833496 115.398697,491.143494 117.323212,514.205933 
	C118.659203,530.215759 122.969704,545.982300 126.059006,561.836487 
	C126.598824,564.606873 128.092758,566.040466 131.512085,566.120056 
	C149.581711,566.541321 166.219254,571.807617 181.399216,581.701660 
	C183.886154,583.322632 186.804504,584.265381 189.400604,585.738159 
	C198.912445,591.134155 208.463043,596.473572 217.785507,602.182922 
	C220.002823,603.540894 221.389709,604.058350 223.978729,603.067444 
	C228.879044,601.192017 233.991852,599.565369 239.160110,598.772766 
	C245.878708,597.742310 252.737457,597.625916 258.838440,597.168457 
	C258.480591,594.464905 257.483948,591.909790 257.958710,589.665955 
	C260.078674,579.646606 262.358582,569.639587 265.250366,559.825378 
	C265.761169,558.091858 269.343292,556.827881 271.727325,556.239502 
	C273.236938,555.866882 275.125519,557.335510 276.901031,557.609375 
	C277.828491,557.752441 279.223053,557.412476 279.821381,556.756714 
	C287.012451,548.875244 286.797394,543.575134 279.159210,536.529480 
	C278.425507,535.852600 277.425049,535.296448 277.029358,534.457458 
	C276.263611,532.833679 275.100739,530.907837 275.395752,529.352478 
	C277.307251,519.273987 280.018616,509.328369 281.517059,499.198547 
	C282.234528,494.348022 284.311829,493.410583 288.273834,494.022369 
	C292.829834,494.725922 296.206818,492.821533 298.029602,488.938690 
	C299.918823,484.914246 300.049927,480.882629 296.447266,477.153107 
	C293.228729,473.821228 290.794220,469.744019 287.698486,466.277252 
	C285.664001,463.998932 285.408234,461.975098 286.402588,459.145233 
	C290.564880,447.299652 294.445770,435.355377 298.569672,423.495911 
	C299.461121,420.932281 299.356232,419.293488 296.762695,417.777679 
	C293.637909,415.951416 290.815308,413.608063 287.796722,411.441772 
	C288.094971,410.608398 288.308868,409.996796 288.532318,409.388672 
	C299.188629,380.390472 309.781982,351.368774 320.580566,322.423645 
	C321.989899,318.645966 323.973999,314.868073 326.516968,311.766815 
	C335.279388,301.080536 344.457764,290.736267 353.340881,280.146942 
	C354.628906,278.611481 355.642731,276.530151 355.978607,274.563934 
	C357.906036,263.280243 360.936707,253.244141 368.878052,243.743698 
	C382.607544,227.318787 397.908112,213.922836 417.774323,205.940903 
	C420.158081,204.983154 422.777802,204.123077 425.301483,204.084244 
	C439.630646,203.863831 453.964020,203.853668 468.295502,203.904251 
	C471.249176,203.914673 474.262115,204.210373 477.141907,204.850662 
	C485.695526,206.752411 494.222717,208.791122 502.698059,211.013290 
	C504.651337,211.525406 506.716125,212.632950 508.115814,214.065994 
	C515.799438,221.932907 523.319092,229.961060 530.823242,238.000870 
	C532.041992,239.306625 533.338562,240.809143 533.859985,242.454880 
	C539.092590,258.972626 542.964722,275.550079 539.470703,293.193237 
	C538.523499,297.976624 536.851807,303.441498 540.193726,308.589478 
	C548.927612,322.043396 554.527466,336.616669 556.823181,352.676483 
	C559.353943,370.380219 556.287048,387.216034 551.517090,403.929047 
	C545.940735,404.191803 542.644165,401.814545 538.709839,397.650146 
	C531.667114,390.195557 517.176208,393.104980 511.103699,401.903687 
	C504.795715,411.043610 501.293976,420.975220 502.870331,432.351440 
	C503.757812,438.755829 511.537994,444.828979 518.052246,444.163849 
	C521.957825,443.765015 525.937439,444.090607 530.756836,444.090607 
	C516.830566,469.034973 503.666870,492.613464 490.329559,516.502991 
	C495.818756,520.333069 501.105591,524.033325 506.404541,527.716187 
	C512.139709,531.702209 512.754456,534.612427 508.936890,540.296021 
	C499.304108,554.637268 489.690765,568.992188 479.946228,583.257263 
	C478.687805,585.099548 476.767517,586.521973 475.039215,588.005310 
	C466.877594,595.010071 457.754364,596.053955 447.864929,592.308411 
	C447.109650,592.022278 446.179291,592.214111 445.406830,591.955322 
	C441.255737,590.564819 438.267822,593.236267 436.655579,595.912170 
	C434.875793,598.866150 436.093597,602.395325 439.621368,604.282410 
	C442.703003,605.930725 442.739014,608.457397 442.005768,611.426270 
	C441.073669,615.200256 440.370270,619.030701 439.449432,623.400696 
	C441.417725,622.932190 442.677124,622.686951 443.904816,622.332092 
	C458.508148,618.110657 473.140625,613.984009 487.680878,609.554932 
	C490.990021,608.546875 493.366455,608.666382 496.174377,610.936096 
	C509.375244,621.606445 522.794128,632.006470 536.079712,642.572754 
	C547.524719,651.675110 558.894958,660.871582 570.536987,670.218079 
	C573.050476,663.623474 575.702148,657.561646 577.606018,651.273438 
	C578.488525,648.358521 577.762207,644.987610 578.071960,641.853821 
	C578.208862,640.468689 578.939941,639.055420 579.692566,637.834473 
	C581.869751,634.302429 583.955322,630.667786 586.552490,627.458313 
	C588.083862,625.565918 590.318115,623.885803 592.584045,623.010925 
	C599.489197,620.344910 606.563232,618.116028 614.972290,615.237488 
	C606.718628,612.040771 603.960510,606.635681 603.329468,599.454102 
	C603.055969,596.340332 603.163513,594.711731 606.325989,593.369019 
	C607.974548,592.669067 609.598083,590.386658 610.002502,588.548340 
	C611.602966,581.272278 612.593750,573.864563 614.065430,566.556885 
	C614.769897,563.058960 615.211792,559.049805 617.229309,556.367981 
	C621.728210,550.387451 627.377258,545.494568 635.234802,544.063110 
	C637.326965,543.681885 639.365723,542.875916 641.352600,542.075317 
	C645.625061,540.353821 647.080322,536.770447 645.258728,531.683716 
	C641.404663,531.683716 637.341248,531.683716 633.018188,531.683716 
	C633.352966,526.725708 633.648010,522.356201 633.947449,517.921265 
	C632.344116,517.442627 630.722229,516.958435 629.456238,516.580505 
	C631.511902,509.989685 633.425110,503.855743 635.378723,497.592316 
	C632.769409,496.938904 630.732544,496.428864 628.475769,495.863770 
	C629.296387,493.320465 630.325073,491.181305 630.640564,488.941711 
	C631.351318,483.895966 634.517090,481.180298 639.081665,480.680328 
	C646.453979,479.872833 653.898987,479.559937 661.320251,479.427765 
	C666.231018,479.340332 670.110291,481.901123 673.367065,485.511139 
	C674.489441,486.755188 675.983459,487.663910 677.661804,489.009766 
	C678.161926,481.442505 681.565430,479.660645 686.613586,482.288818 
	C686.119751,487.196228 685.389465,491.573792 685.314331,495.962555 
	C685.229370,500.921295 685.903809,505.889526 685.921326,510.854797 
	C685.933044,514.198669 684.390198,516.654602 680.892944,517.851990 
	C673.327026,520.442444 668.567200,525.854187 665.876221,534.127686 
	C676.002991,538.148621 679.969788,547.526794 684.871887,556.423157 
	C687.965698,562.038025 692.655701,566.773315 696.505188,571.742432 
	C704.575806,564.957397 704.229675,556.283936 706.087219,548.288330 
	C708.181213,539.274963 708.445923,528.999573 719.948730,525.301270 
	C724.538147,523.825745 731.100769,524.968384 733.989929,528.960571 
	C739.832886,537.034058 739.399170,548.497681 733.027405,556.181885 
	C732.215271,557.161316 731.323730,558.329224 731.121216,559.520752 
	C728.872803,572.749817 731.278992,585.798340 733.239319,599.221802 
	C735.375793,596.974121 737.164185,594.557373 737.896729,591.854431 
	C738.784302,588.579651 739.830444,586.347473 743.622375,585.664368 
	C745.696228,585.290833 747.767334,583.689941 749.372314,582.154053 
	C754.186218,577.547607 758.725464,572.655945 763.453491,567.957642 
	C772.076538,559.389038 772.838440,551.993713 762.909790,543.840820 
	C761.705627,544.922668 760.479980,546.868713 759.412231,546.785645 
	C757.796448,546.659912 755.622803,545.496521 754.849548,544.120361 
	C750.741028,536.808044 746.757996,529.402527 743.216614,521.803223 
	C741.214539,517.507324 743.423523,514.378601 748.146973,513.674927 
	C756.222351,512.471924 762.716125,514.819885 767.160767,522.007690 
	C769.054260,525.069641 771.190796,527.981384 773.720886,531.702637 
	C772.698853,521.713562 767.773621,509.844269 761.099304,498.267731 
	C758.633301,493.990601 755.771790,491.977295 750.938843,492.022308 
	C749.657532,492.034241 747.800415,490.925598 747.157654,489.792572 
	C735.849670,469.856415 731.011414,447.983032 728.257568,425.514923 
	C728.188843,424.954132 728.463745,424.241516 728.803101,423.757172 
	C732.923645,417.875458 747.238708,413.445251 753.010254,417.454926 
	C761.713013,423.501007 770.117310,430.215698 777.615112,437.683685 
	C783.926208,443.969696 788.776733,451.725037 794.249817,458.848389 
	C797.633057,463.251678 797.593933,470.306091 793.949341,475.009613 
	C805.030762,486.530853 813.120361,499.406128 808.726379,516.845703 
	C815.311829,514.889771 818.356995,511.203735 819.825195,505.599091 
	C822.000977,497.293549 824.618530,489.098877 827.216797,480.910583 
	C829.054871,475.118103 832.062012,469.553314 832.985535,463.642822 
	C835.105530,450.076111 843.749023,447.046417 854.258484,448.281219 
	C858.066040,448.728577 862.883240,451.394958 863.013245,457.060730 
	C863.195557,465.006104 863.231262,472.956177 863.519409,480.897369 
	C863.817932,489.124847 864.342896,497.344086 864.768799,505.566925 
	C866.043152,501.305573 866.938599,497.115692 866.932129,492.927185 
	C866.891113,466.371368 867.672729,439.839569 863.219177,413.398773 
	C859.970337,394.110046 855.999207,375.098450 850.117493,356.467346 
	C840.649963,326.477539 827.845642,298.092438 811.197571,271.306244 
	C796.694580,247.971481 780.239807,226.235336 760.992737,206.761093 
	C749.581970,195.215622 737.065063,184.717224 724.630798,174.240112 
	C705.053406,157.744141 683.331360,144.448792 660.523499,132.905945 
	C639.286499,122.158104 617.249146,113.393402 594.305908,107.065567 
	C584.232727,104.287331 573.939941,102.305374 562.998108,99.498604 
M598.760193,663.196899 
	C595.830200,670.908569 593.377625,678.848389 589.832092,686.265808 
	C586.482971,693.272278 589.184143,699.673889 589.745483,706.459656 
	C590.407043,714.455383 594.434631,719.257080 600.689880,723.462585 
	C605.497986,726.695068 610.109558,727.784485 615.628479,726.072510 
	C656.148560,713.503113 696.655884,700.889343 737.267944,688.623230 
	C742.572754,687.020996 745.736084,683.920410 748.550781,679.269653 
	C742.867798,669.217346 737.049133,659.027710 731.331726,648.781555 
	C726.199158,639.583557 719.989380,630.840088 718.966736,619.855957 
	C718.876709,618.889587 718.125061,617.499023 717.323486,617.166504 
	C713.279175,615.488525 709.554626,614.186584 704.706177,616.158813 
	C671.981445,629.470703 639.113770,642.434875 606.190063,655.248779 
	C602.388367,656.728394 600.127625,658.793213 598.760193,663.196899 
M182.985703,608.550720 
	C171.709717,605.796570 160.498322,602.727417 149.135422,600.397156 
	C141.356155,598.801819 133.375061,597.488953 125.467628,597.391418 
	C114.678055,597.258301 103.871765,598.385071 93.075287,599.016907 
	C91.599937,599.103271 90.130226,599.400879 88.674103,599.684021 
	C64.338356,604.415100 47.743515,621.290161 30.124220,636.378906 
	C31.913490,640.344360 34.543102,641.287170 38.301483,641.109680 
	C43.262783,640.875305 48.278515,641.202271 53.238518,641.647827 
	C65.491943,642.748718 77.702782,644.458313 89.974457,645.193054 
	C114.405762,646.655823 138.870773,647.550842 163.308060,648.926025 
	C165.663574,649.058533 168.342377,650.438416 170.157791,652.045166 
	C182.254059,662.751282 194.121628,673.715332 206.169342,684.477173 
	C207.534561,685.696655 209.526688,686.797791 211.283310,686.888794 
	C217.088455,687.189697 222.918900,687.002319 228.603638,687.002319 
	C232.301208,677.742188 234.256744,668.814392 228.617645,659.736877 
	C226.893646,656.961670 225.796463,653.697083 224.911987,650.517578 
	C221.010452,636.492798 213.168930,625.644836 200.500900,618.140137 
	C194.987244,614.873840 190.595490,609.667969 182.985703,608.550720 
M733.677612,622.834473 
	C738.842590,638.327881 747.712952,651.910156 755.913757,665.831604 
	C757.842102,669.104919 763.684509,671.344666 765.590942,669.381165 
	C772.186890,662.588074 780.156006,656.438721 784.612122,648.388977 
	C797.113281,625.806152 809.873108,603.228027 817.864685,578.437927 
	C820.081177,571.562439 818.786682,568.373596 811.829407,566.191589 
	C802.433167,563.244629 793.260986,559.456421 783.153625,559.234253 
	C780.257324,559.170593 778.214905,559.478699 776.342224,561.954285 
	C770.439087,569.757629 763.638245,576.961731 758.422424,585.182922 
	C753.145569,593.500244 747.053345,599.874329 737.257629,602.302612 
	C735.799255,602.664185 734.038147,604.245605 733.551941,605.654419 
	C731.687134,611.057556 729.628662,616.612854 733.677612,622.834473 
M476.027161,358.443420 
	C466.969452,350.958862 456.651306,347.404877 444.973145,349.546265 
	C415.690094,354.915863 401.469543,389.693298 417.728577,415.797821 
	C433.664703,441.384003 468.281891,441.406525 484.246246,415.841095 
	C495.650421,397.578308 492.504303,374.247772 476.027161,358.443420 
M503.533112,528.873108 
	C471.747894,512.845947 439.962677,496.818848 408.483612,480.946106 
	C400.378326,490.488220 399.783264,501.440186 396.993439,511.587219 
	C395.544800,516.856018 398.865234,524.141235 403.811523,526.382019 
	C428.139923,537.402832 452.441864,548.490967 476.972443,559.045532 
	C480.081085,560.383118 485.922699,560.205750 488.007874,558.174194 
	C494.152527,552.187744 499.399261,545.153748 504.200806,537.995422 
	C505.544220,535.992615 509.144348,532.014771 503.533112,528.873108 
M800.449463,796.039978 
	C787.856323,781.348389 776.227478,765.814514 762.760376,751.893738 
	C774.553833,777.487366 786.729980,802.709961 799.105103,827.834595 
	C802.796448,835.328979 805.549561,842.858582 806.562012,851.325134 
	C810.750916,886.354004 815.468445,921.319763 820.015686,956.305603 
	C821.659912,968.955566 823.370972,981.596924 825.051514,994.242188 
	C825.807129,969.539246 825.382996,944.908813 825.918213,920.299316 
	C826.537415,891.827454 828.064575,863.376038 828.981323,834.908752 
	C829.057434,832.547852 828.058655,829.677673 826.582642,827.820068 
	C818.199280,817.268616 809.518738,806.953308 800.449463,796.039978 
M549.123108,896.457642 
	C537.107056,891.300842 525.090942,886.144104 513.064697,880.982971 
	C518.068359,868.718567 527.068665,857.745850 520.195923,843.533691 
	C516.367981,845.918945 512.389587,848.302612 508.523132,850.855774 
	C507.050964,851.827881 505.165527,852.936218 504.607819,854.412842 
	C499.293732,868.481689 494.224548,882.643127 489.057953,896.852295 
	C490.220245,897.371704 490.944855,897.785095 491.722534,898.030029 
	C519.687439,906.839661 545.240967,920.401245 569.215332,937.136230 
	C574.527710,940.844482 580.128479,944.140442 585.609009,947.606445 
	C586.924072,948.438049 588.289185,949.190369 590.804565,950.668762 
	C586.048706,940.667114 581.013428,932.175110 577.894653,923.029541 
	C573.162048,909.151489 564.357666,900.489746 550.273254,896.967346 
	C550.111938,896.927063 549.955322,896.867981 549.123108,896.457642 
M377.784882,712.820740 
	C385.995667,733.605347 394.206451,754.389954 402.398529,775.127136 
	C412.481476,771.689026 412.560944,771.468384 412.972321,762.501160 
	C413.614502,748.501587 411.195862,735.262878 405.495148,722.297363 
	C394.949310,698.312317 385.410675,673.885498 374.964874,649.854675 
	C371.384552,641.618103 358.996613,635.788452 352.464417,645.281555 
	C360.837799,667.703796 369.133881,689.918884 377.784882,712.820740 
M409.352631,686.298096 
	C409.856262,687.877441 410.549744,689.423279 410.835083,691.041138 
	C415.180664,715.682373 424.073608,738.612854 436.610504,760.203979 
	C438.632599,763.686462 440.304993,767.372009 442.854889,772.365540 
	C445.893036,767.352478 449.914215,763.645203 450.274597,759.610840 
	C451.757904,743.006409 449.201233,726.614258 442.771515,711.275085 
	C433.980927,690.303650 424.338959,669.683044 414.784576,649.040466 
	C410.444153,639.662720 405.119965,638.470886 396.811432,644.267212 
	C395.636566,645.086914 394.564178,646.053589 393.371582,647.010620 
	C398.685364,660.061523 403.877350,672.813354 409.352631,686.298096 
M422.049347,635.503906 
	C420.659302,636.564758 419.269257,637.625549 418.566132,638.162170 
	C439.816254,678.676819 462.037262,717.890686 490.073425,754.707947 
	C491.542145,751.507141 494.089905,748.668152 493.701111,746.314209 
	C492.303833,737.854248 491.477844,728.739380 487.609283,721.352356 
	C475.677246,698.567749 462.681854,676.323364 449.561096,654.188293 
	C445.711334,647.693542 440.351196,641.998779 435.167450,636.416382 
	C429.777100,630.611572 429.504150,630.865051 422.049347,635.503906 
M338.253967,314.749390 
	C335.445557,318.880157 332.637177,323.010925 329.827728,327.143250 
	C335.903198,331.115265 339.064209,330.846313 342.953430,326.556702 
	C350.779541,317.924957 357.684174,308.197510 366.562164,300.846100 
	C377.429169,291.847656 389.540833,284.135437 401.848846,277.163788 
	C411.399902,271.753754 422.548065,270.609924 433.518280,269.341827 
	C447.785461,267.692627 461.965729,266.554260 476.255005,268.664917 
	C480.302917,269.262817 484.371552,269.720184 488.378845,270.235352 
	C489.353668,265.629395 487.224030,260.665710 483.709473,259.823090 
	C477.255249,258.275665 470.703003,256.080505 464.183105,256.051178 
	C439.538422,255.940308 414.972961,257.355377 391.027832,263.991272 
	C389.803925,264.330475 388.636841,265.055420 387.582184,265.798004 
	C368.573334,279.182404 351.092438,294.117279 338.253967,314.749390 
M333.524170,448.929230 
	C341.081665,421.763031 348.851318,394.652344 355.985901,367.375549 
	C357.162628,362.876648 355.582367,357.647705 355.229218,352.759552 
	C354.672607,345.055084 347.398041,347.967957 343.570923,345.426605 
	C343.436768,345.337494 343.263153,345.302185 343.103394,345.258118 
	C339.073792,344.146820 327.203278,348.888000 325.263367,352.586304 
	C320.677155,361.329559 317.297760,370.461609 317.063812,380.491943 
	C317.037659,381.612457 316.831024,383.307556 317.442566,383.774750 
	C323.642212,388.510895 326.377563,398.770020 337.577087,395.859100 
	C337.018066,397.801056 336.620483,399.178253 336.225159,400.556091 
	C332.474274,413.628784 329.118622,426.833618 324.810486,439.720032 
	C322.577606,446.398956 324.314423,450.661407 330.193634,454.551239 
	C331.209869,452.910980 332.219269,451.281799 333.524170,448.929230 
M505.818878,722.732788 
	C509.190094,727.796936 512.561340,732.861084 515.932556,737.925293 
	C516.538940,737.924072 517.145325,737.922913 517.751648,737.921692 
	C518.549866,735.283508 519.971924,732.657227 520.022583,730.004761 
	C520.145935,723.533325 519.697754,717.046143 519.328491,710.573853 
	C519.247131,709.147522 518.836487,707.565308 518.072937,706.379761 
	C510.799530,695.086914 504.132629,683.305725 495.895386,672.754761 
	C484.177673,657.745850 473.680634,641.560669 458.203064,629.767700 
	C452.630768,625.521912 446.879120,626.241882 442.735718,632.283936 
	C447.176910,637.872803 451.974121,643.212097 455.990143,649.085510 
	C472.583832,673.353821 488.940857,697.783936 505.818878,722.732788 
M339.877594,808.853027 
	C338.769043,808.652283 337.660492,808.451538 336.551941,808.250793 
	C336.367706,808.686707 336.183502,809.122620 335.999268,809.558533 
	C337.919373,810.968018 339.659332,812.784119 341.786407,813.726196 
	C377.058899,829.349487 413.988831,838.784302 452.301025,842.890015 
	C453.860199,843.057129 456.307556,842.446777 456.963837,841.363831 
	C457.589294,840.331848 456.932556,837.726135 455.936218,836.644104 
	C451.348267,831.662109 446.938202,826.304382 441.551147,822.314209 
	C430.330933,814.003418 417.315002,810.149353 403.355225,810.066589 
	C395.676697,810.021057 388.406799,813.406433 380.378265,812.233582 
	C373.286011,811.197571 365.899231,812.374451 358.691315,811.872986 
	C352.637207,811.451721 346.653381,810.019897 339.877594,808.853027 
M523.067200,661.406982 
	C519.081177,656.511169 515.714294,650.884827 510.979889,646.871948 
	C501.212494,638.593140 490.781708,631.086182 480.497437,623.431580 
	C472.568695,617.530151 468.067688,618.736694 463.319366,627.813049 
	C465.480530,629.799377 467.672089,631.832886 469.884247,633.843872 
	C491.930206,653.884521 514.683350,673.244873 531.097229,698.626404 
	C533.620911,702.528931 536.596558,706.166321 539.618652,709.708435 
	C541.223633,711.589539 543.377197,713.002747 545.283081,714.627258 
	C545.957886,714.419373 546.632751,714.211548 547.307617,714.003723 
	C547.431396,710.058960 548.464294,705.873413 547.495911,702.218018 
	C545.250061,693.739868 542.321838,685.448975 536.369873,678.542297 
	C531.811096,673.252319 527.780640,667.507019 523.067200,661.406982 
M866.017639,593.271790 
	C866.076111,589.614319 866.265625,585.953125 866.159607,582.300415 
	C866.027832,577.761230 861.347900,573.026550 857.308228,573.256287 
	C850.569519,573.639404 843.834290,574.096497 837.102478,574.589172 
	C826.995850,575.328735 826.510986,575.226013 823.927429,585.108582 
	C822.088440,592.143005 820.556091,599.552734 828.420776,605.127930 
	C833.375671,608.640320 837.336365,613.543396 841.833679,617.725098 
	C842.549988,618.391113 843.977295,619.121704 844.680542,618.838989 
	C849.492493,616.905212 854.551819,615.254456 858.856689,612.469421 
	C865.321411,608.287231 864.617004,600.708069 866.017639,593.271790 
M373.884918,472.782257 
	C362.249298,468.775818 350.613708,464.769409 337.890167,460.388367 
	C339.172394,462.511627 339.685699,463.544861 340.363281,464.455902 
	C349.828949,477.182556 357.612976,490.809601 362.866974,505.836670 
	C363.295593,507.062500 364.509857,508.218536 365.650421,508.956787 
	C372.322571,513.275452 378.424438,509.863068 384.275970,506.983002 
	C386.940582,505.671539 389.891541,503.422607 391.040283,500.851654 
	C393.845459,494.573639 395.675568,487.859955 397.999359,481.024139 
	C389.975006,478.259613 382.311676,475.619476 373.884918,472.782257 
M503.460632,633.998352 
	C510.558868,640.201294 518.275635,645.836426 524.611755,652.738892 
	C534.360168,663.358643 543.121399,674.881653 552.429260,685.913574 
	C553.294983,686.939636 556.001404,688.003479 556.289307,687.675781 
	C558.708923,684.921814 561.568298,682.117798 562.688538,678.788208 
	C563.695312,675.795715 565.052246,672.108826 561.085815,668.951538 
	C544.186340,655.499634 527.595032,641.661377 510.815247,628.057861 
	C505.910248,624.081360 500.685516,620.501404 495.729095,616.585571 
	C488.876221,611.171509 486.363922,611.248352 479.957062,617.635315 
	C487.619324,622.970398 495.245453,628.280273 503.460632,633.998352 
M787.122925,664.571655 
	C797.123108,658.639771 807.147217,652.747620 817.099731,646.736694 
	C818.746033,645.742371 820.483154,644.485046 821.481628,642.908081 
	C824.588806,638.000793 827.530823,632.969482 830.207642,627.815308 
	C832.196411,623.985779 831.934143,620.190002 828.470337,617.060974 
	C826.247192,615.052612 824.095398,612.964417 821.850586,610.981201 
	C818.181458,607.739563 813.004089,609.029785 811.226624,613.536865 
	C808.551025,620.321655 805.509644,626.980713 803.190552,633.883606 
	C799.041016,646.235107 791.270813,655.306335 780.281921,662.172363 
	C777.405151,663.969849 775.854309,667.889343 773.694519,670.834290 
	C774.136841,671.174622 774.579102,671.514954 775.021423,671.855347 
	C778.850159,669.555908 782.678894,667.256531 787.122925,664.571655 
M806.971802,553.235413 
	C809.211121,553.690369 811.450378,554.145325 814.537842,554.772583 
	C815.330078,551.597900 816.927795,548.579834 816.613037,545.776489 
	C815.877380,539.222961 814.249756,532.767212 812.933167,526.282104 
	C812.041016,521.887512 804.970825,518.445923 801.035400,520.471985 
	C794.266052,523.957031 787.589539,527.634155 780.722168,530.912537 
	C776.918579,532.728333 774.466919,536.424133 775.311401,539.409729 
	C776.302979,542.915161 779.588135,547.244446 782.845398,548.338867 
	C790.302917,550.844421 798.348633,551.599731 806.971802,553.235413 
M848.607361,464.178131 
	C848.786987,461.776672 848.966614,459.375214 849.146667,456.967194 
	C843.367126,456.786591 840.213318,459.472687 839.001648,464.841858 
	C836.591492,475.521912 834.171509,486.200256 831.651917,496.854828 
	C830.323425,502.472687 826.504395,508.746857 827.963562,513.430664 
	C829.441345,518.174255 836.000732,521.369690 840.410217,525.154663 
	C844.355286,528.541016 849.357483,527.922241 853.124390,523.249146 
	C851.537476,521.934021 850.011108,520.527283 848.343445,519.314819 
	C844.151978,516.267456 841.480591,513.206482 842.599915,507.035248 
	C845.117859,493.152679 846.573059,479.077362 848.607361,464.178131 
M775.005981,468.177185 
	C772.097656,465.739349 769.233337,465.418701 765.515015,466.963135 
	C762.459839,468.232147 758.799072,468.043243 754.968506,468.559601 
	C750.856079,455.278717 746.687439,442.536896 743.015076,429.653595 
	C741.171082,423.184601 740.877563,422.730286 733.768311,426.333069 
	C738.095459,444.977417 741.993591,463.799286 751.616943,481.218536 
	C761.800171,481.630157 768.301636,474.553253 775.005981,468.177185 
M861.530273,535.993164 
	C861.958496,533.389038 862.386658,530.784912 862.864441,527.879456 
	C861.097412,527.977661 859.702454,528.055176 858.275574,528.134460 
	C858.275574,534.800842 858.275574,541.055176 858.275574,547.309509 
	C858.600220,547.350403 858.924927,547.391235 859.249573,547.432129 
	C859.850830,543.864624 860.452087,540.297180 861.530273,535.993164 
M814.022156,662.491760 
	C815.710999,659.451416 817.399841,656.411133 819.088684,653.370850 
	C814.492981,657.195679 807.630798,659.697144 810.456482,667.858337 
	C811.522461,666.163025 812.506775,664.597534 814.022156,662.491760 
z"/>
<path fill="#FFFFFF" opacity="1.000000" stroke="none" 
	d="
M563.372437,99.730240 
	C573.939941,102.305374 584.232727,104.287331 594.305908,107.065567 
	C617.249146,113.393402 639.286499,122.158104 660.523499,132.905945 
	C683.331360,144.448792 705.053406,157.744141 724.630798,174.240112 
	C737.065063,184.717224 749.581970,195.215622 760.992737,206.761093 
	C780.239807,226.235336 796.694580,247.971481 811.197571,271.306244 
	C827.845642,298.092438 840.649963,326.477539 850.117493,356.467346 
	C855.999207,375.098450 859.970337,394.110046 863.219177,413.398773 
	C867.672729,439.839569 866.891113,466.371368 866.932129,492.927185 
	C866.938599,497.115692 866.043152,501.305573 864.768799,505.566925 
	C864.342896,497.344086 863.817932,489.124847 863.519409,480.897369 
	C863.231262,472.956177 863.195557,465.006104 863.013245,457.060730 
	C862.883240,451.394958 858.066040,448.728577 854.258484,448.281219 
	C843.749023,447.046417 835.105530,450.076111 832.985535,463.642822 
	C832.062012,469.553314 829.054871,475.118103 827.216797,480.910583 
	C824.618530,489.098877 822.000977,497.293549 819.825195,505.599091 
	C818.356995,511.203735 815.311829,514.889771 808.726379,516.845703 
	C813.120361,499.406128 805.030762,486.530853 793.949341,475.009613 
	C797.593933,470.306091 797.633057,463.251678 794.249817,458.848389 
	C788.776733,451.725037 783.926208,443.969696 777.615112,437.683685 
	C770.117310,430.215698 761.713013,423.501007 753.010254,417.454926 
	C747.238708,413.445251 732.923645,417.875458 728.803101,423.757172 
	C728.463745,424.241516 728.188843,424.954132 728.257568,425.514923 
	C731.011414,447.983032 735.849670,469.856415 747.157654,489.792572 
	C747.800415,490.925598 749.657532,492.034241 750.938843,492.022308 
	C755.771790,491.977295 758.633301,493.990601 761.099304,498.267731 
	C767.773621,509.844269 772.698853,521.713562 773.720886,531.702637 
	C771.190796,527.981384 769.054260,525.069641 767.160767,522.007690 
	C762.716125,514.819885 756.222351,512.471924 748.146973,513.674927 
	C743.423523,514.378601 741.214539,517.507324 743.216614,521.803223 
	C746.757996,529.402527 750.741028,536.808044 754.849548,544.120361 
	C755.622803,545.496521 757.796448,546.659912 759.412231,546.785645 
	C760.479980,546.868713 761.705627,544.922668 762.909790,543.840820 
	C772.838440,551.993713 772.076538,559.389038 763.453491,567.957642 
	C758.725464,572.655945 754.186218,577.547607 749.372314,582.154053 
	C747.767334,583.689941 745.696228,585.290833 743.622375,585.664368 
	C739.830444,586.347473 738.784302,588.579651 737.896729,591.854431 
	C737.164185,594.557373 735.375793,596.974121 733.239319,599.221802 
	C731.278992,585.798340 728.872803,572.749817 731.121216,559.520752 
	C731.323730,558.329224 732.215271,557.161316 733.027405,556.181885 
	C739.399170,548.497681 739.832886,537.034058 733.989929,528.960571 
	C731.100769,524.968384 724.538147,523.825745 719.948730,525.301270 
	C708.445923,528.999573 708.181213,539.274963 706.087219,548.288330 
	C704.229675,556.283936 704.575806,564.957397 696.505188,571.742432 
	C692.655701,566.773315 687.965698,562.038025 684.871887,556.423157 
	C679.969788,547.526794 676.002991,538.148621 665.876221,534.127686 
	C668.567200,525.854187 673.327026,520.442444 680.892944,517.851990 
	C684.390198,516.654602 685.933044,514.198669 685.921326,510.854797 
	C685.903809,505.889526 685.229370,500.921295 685.314331,495.962555 
	C685.389465,491.573792 686.119751,487.196228 686.613586,482.288818 
	C681.565430,479.660645 678.161926,481.442505 677.661804,489.009766 
	C675.983459,487.663910 674.489441,486.755188 673.367065,485.511139 
	C670.110291,481.901123 666.231018,479.340332 661.320251,479.427765 
	C653.898987,479.559937 646.453979,479.872833 639.081665,480.680328 
	C634.517090,481.180298 631.351318,483.895966 630.640564,488.941711 
	C630.325073,491.181305 629.296387,493.320465 628.475769,495.863770 
	C630.732544,496.428864 632.769409,496.938904 635.378723,497.592316 
	C633.425110,503.855743 631.511902,509.989685 629.456238,516.580505 
	C630.722229,516.958435 632.344116,517.442627 633.947449,517.921265 
	C633.648010,522.356201 633.352966,526.725708 633.018188,531.683716 
	C637.341248,531.683716 641.404663,531.683716 645.258728,531.683716 
	C647.080322,536.770447 645.625061,540.353821 641.352600,542.075317 
	C639.365723,542.875916 637.326965,543.681885 635.234802,544.063110 
	C627.377258,545.494568 621.728210,550.387451 617.229309,556.367981 
	C615.211792,559.049805 614.769897,563.058960 614.065430,566.556885 
	C612.593750,573.864563 611.602966,581.272278 610.002502,588.548340 
	C609.598083,590.386658 607.974548,592.669067 606.325989,593.369019 
	C603.163513,594.711731 603.055969,596.340332 603.329468,599.454102 
	C603.960510,606.635681 606.718628,612.040771 614.972290,615.237488 
	C606.563232,618.116028 599.489197,620.344910 592.584045,623.010925 
	C590.318115,623.885803 588.083862,625.565918 586.552490,627.458313 
	C583.955322,630.667786 581.869751,634.302429 579.692566,637.834473 
	C578.939941,639.055420 578.208862,640.468689 578.071960,641.853821 
	C577.762207,644.987610 578.488525,648.358521 577.606018,651.273438 
	C575.702148,657.561646 573.050476,663.623474 570.536987,670.218079 
	C558.894958,660.871582 547.524719,651.675110 536.079712,642.572754 
	C522.794128,632.006470 509.375244,621.606445 496.174377,610.936096 
	C493.366455,608.666382 490.990021,608.546875 487.680878,609.554932 
	C473.140625,613.984009 458.508148,618.110657 443.904816,622.332092 
	C442.677124,622.686951 441.417725,622.932190 439.449432,623.400696 
	C440.370270,619.030701 441.073669,615.200256 442.005768,611.426270 
	C442.739014,608.457397 442.703003,605.930725 439.621368,604.282410 
	C436.093597,602.395325 434.875793,598.866150 436.655579,595.912170 
	C438.267822,593.236267 441.255737,590.564819 445.406830,591.955322 
	C446.179291,592.214111 447.109650,592.022278 447.864929,592.308411 
	C457.754364,596.053955 466.877594,595.010071 475.039215,588.005310 
	C476.767517,586.521973 478.687805,585.099548 479.946228,583.257263 
	C489.690765,568.992188 499.304108,554.637268 508.936890,540.296021 
	C512.754456,534.612427 512.139709,531.702209 506.404541,527.716187 
	C501.105591,524.033325 495.818756,520.333069 490.329559,516.502991 
	C503.666870,492.613464 516.830566,469.034973 530.756836,444.090607 
	C525.937439,444.090607 521.957825,443.765015 518.052246,444.163849 
	C511.537994,444.828979 503.757812,438.755829 502.870331,432.351440 
	C501.293976,420.975220 504.795715,411.043610 511.103699,401.903687 
	C517.176208,393.104980 531.667114,390.195557 538.709839,397.650146 
	C542.644165,401.814545 545.940735,404.191803 551.517090,403.929047 
	C556.287048,387.216034 559.353943,370.380219 556.823181,352.676483 
	C554.527466,336.616669 548.927612,322.043396 540.193726,308.589478 
	C536.851807,303.441498 538.523499,297.976624 539.470703,293.193237 
	C542.964722,275.550079 539.092590,258.972626 533.859985,242.454880 
	C533.338562,240.809143 532.041992,239.306625 530.823242,238.000870 
	C523.319092,229.961060 515.799438,221.932907 508.115814,214.065994 
	C506.716125,212.632950 504.651337,211.525406 502.698059,211.013290 
	C494.222717,208.791122 485.695526,206.752411 477.141907,204.850662 
	C474.262115,204.210373 471.249176,203.914673 468.295502,203.904251 
	C453.964020,203.853668 439.630646,203.863831 425.301483,204.084244 
	C422.777802,204.123077 420.158081,204.983154 417.774323,205.940903 
	C397.908112,213.922836 382.607544,227.318787 368.878052,243.743698 
	C360.936707,253.244141 357.906036,263.280243 355.978607,274.563934 
	C355.642731,276.530151 354.628906,278.611481 353.340881,280.146942 
	C344.457764,290.736267 335.279388,301.080536 326.516968,311.766815 
	C323.973999,314.868073 321.989899,318.645966 320.580566,322.423645 
	C309.781982,351.368774 299.188629,380.390472 288.532318,409.388672 
	C288.308868,409.996796 288.094971,410.608398 287.796722,411.441772 
	C290.815308,413.608063 293.637909,415.951416 296.762695,417.777679 
	C299.356232,419.293488 299.461121,420.932281 298.569672,423.495911 
	C294.445770,435.355377 290.564880,447.299652 286.402588,459.145233 
	C285.408234,461.975098 285.664001,463.998932 287.698486,466.277252 
	C290.794220,469.744019 293.228729,473.821228 296.447266,477.153107 
	C300.049927,480.882629 299.918823,484.914246 298.029602,488.938690 
	C296.206818,492.821533 292.829834,494.725922 288.273834,494.022369 
	C284.311829,493.410583 282.234528,494.348022 281.517059,499.198547 
	C280.018616,509.328369 277.307251,519.273987 275.395752,529.352478 
	C275.100739,530.907837 276.263611,532.833679 277.029358,534.457458 
	C277.425049,535.296448 278.425507,535.852600 279.159210,536.529480 
	C286.797394,543.575134 287.012451,548.875244 279.821381,556.756714 
	C279.223053,557.412476 277.828491,557.752441 276.901031,557.609375 
	C275.125519,557.335510 273.236938,555.866882 271.727325,556.239502 
	C269.343292,556.827881 265.761169,558.091858 265.250366,559.825378 
	C262.358582,569.639587 260.078674,579.646606 257.958710,589.665955 
	C257.483948,591.909790 258.480591,594.464905 258.838440,597.168457 
	C252.737457,597.625916 245.878708,597.742310 239.160110,598.772766 
	C233.991852,599.565369 228.879044,601.192017 223.978729,603.067444 
	C221.389709,604.058350 220.002823,603.540894 217.785507,602.182922 
	C208.463043,596.473572 198.912445,591.134155 189.400604,585.738159 
	C186.804504,584.265381 183.886154,583.322632 181.399216,581.701660 
	C166.219254,571.807617 149.581711,566.541321 131.512085,566.120056 
	C128.092758,566.040466 126.598824,564.606873 126.059006,561.836487 
	C122.969704,545.982300 118.659203,530.215759 117.323212,514.205933 
	C115.398697,491.143494 114.279274,467.833496 115.353355,444.747192 
	C116.677261,416.291138 122.051361,388.270752 130.463272,360.865845 
	C137.456223,338.083679 146.100372,316.012146 157.116089,294.954132 
	C168.120972,273.916809 180.647858,253.739700 196.028076,235.539688 
	C205.665833,224.134949 215.221100,212.585266 225.718872,201.998489 
	C246.076874,181.467926 268.891937,163.994827 293.501129,148.677795 
	C320.276520,132.012512 348.695679,119.254440 378.662354,109.775566 
	C397.125916,103.935280 416.003174,100.013870 435.132874,96.797760 
	C461.567627,92.353500 488.122803,92.449211 514.650574,93.271492 
	C529.360413,93.727440 543.984741,96.941696 558.647644,98.912788 
	C560.097839,99.107735 561.547974,99.303314 563.372437,99.730240 
z"/>
<path fill="#FEFEFE" opacity="1.000000" stroke="none" 
	d="
M598.888672,662.838074 
	C600.127625,658.793213 602.388367,656.728394 606.190063,655.248779 
	C639.113770,642.434875 671.981445,629.470703 704.706177,616.158813 
	C709.554626,614.186584 713.279175,615.488525 717.323486,617.166504 
	C718.125061,617.499023 718.876709,618.889587 718.966736,619.855957 
	C719.989380,630.840088 726.199158,639.583557 731.331726,648.781555 
	C737.049133,659.027710 742.867798,669.217346 748.550781,679.269653 
	C745.736084,683.920410 742.572754,687.020996 737.267944,688.623230 
	C696.655884,700.889343 656.148560,713.503113 615.628479,726.072510 
	C610.109558,727.784485 605.497986,726.695068 600.689880,723.462585 
	C594.434631,719.257080 590.407043,714.455383 589.745483,706.459656 
	C589.184143,699.673889 586.482971,693.272278 589.832092,686.265808 
	C593.377625,678.848389 595.830200,670.908569 598.888672,662.838074 
z"/>
<path fill="#FEFEFE" opacity="1.000000" stroke="none" 
	d="
M183.359741,608.687988 
	C190.595490,609.667969 194.987244,614.873840 200.500900,618.140137 
	C213.168930,625.644836 221.010452,636.492798 224.911987,650.517578 
	C225.796463,653.697083 226.893646,656.961670 228.617645,659.736877 
	C234.256744,668.814392 232.301208,677.742188 228.603638,687.002319 
	C222.918900,687.002319 217.088455,687.189697 211.283310,686.888794 
	C209.526688,686.797791 207.534561,685.696655 206.169342,684.477173 
	C194.121628,673.715332 182.254059,662.751282 170.157791,652.045166 
	C168.342377,650.438416 165.663574,649.058533 163.308060,648.926025 
	C138.870773,647.550842 114.405762,646.655823 89.974457,645.193054 
	C77.702782,644.458313 65.491943,642.748718 53.238518,641.647827 
	C48.278515,641.202271 43.262783,640.875305 38.301483,641.109680 
	C34.543102,641.287170 31.913490,640.344360 30.124220,636.378906 
	C47.743515,621.290161 64.338356,604.415100 88.674103,599.684021 
	C90.130226,599.400879 91.599937,599.103271 93.075287,599.016907 
	C103.871765,598.385071 114.678055,597.258301 125.467628,597.391418 
	C133.375061,597.488953 141.356155,598.801819 149.135422,600.397156 
	C160.498322,602.727417 171.709717,605.796570 183.359741,608.687988 
z"/>
<path fill="#FEFEFE" opacity="1.000000" stroke="none" 
	d="
M733.461670,622.504883 
	C729.628662,616.612854 731.687134,611.057556 733.551941,605.654419 
	C734.038147,604.245605 735.799255,602.664185 737.257629,602.302612 
	C747.053345,599.874329 753.145569,593.500244 758.422424,585.182922 
	C763.638245,576.961731 770.439087,569.757629 776.342224,561.954285 
	C778.214905,559.478699 780.257324,559.170593 783.153625,559.234253 
	C793.260986,559.456421 802.433167,563.244629 811.829407,566.191589 
	C818.786682,568.373596 820.081177,571.562439 817.864685,578.437927 
	C809.873108,603.228027 797.113281,625.806152 784.612122,648.388977 
	C780.156006,656.438721 772.186890,662.588074 765.590942,669.381165 
	C763.684509,671.344666 757.842102,669.104919 755.913757,665.831604 
	C747.712952,651.910156 738.842590,638.327881 733.461670,622.504883 
z"/>
<path fill="#FDFDFD" opacity="1.000000" stroke="none" 
	d="
M476.298157,358.676941 
	C492.504303,374.247772 495.650421,397.578308 484.246246,415.841095 
	C468.281891,441.406525 433.664703,441.384003 417.728577,415.797821 
	C401.469543,389.693298 415.690094,354.915863 444.973145,349.546265 
	C456.651306,347.404877 466.969452,350.958862 476.298157,358.676941 
z"/>
<path fill="#FDFDFD" opacity="1.000000" stroke="none" 
	d="
M503.867371,529.002441 
	C509.144348,532.014771 505.544220,535.992615 504.200806,537.995422 
	C499.399261,545.153748 494.152527,552.187744 488.007874,558.174194 
	C485.922699,560.205750 480.081085,560.383118 476.972443,559.045532 
	C452.441864,548.490967 428.139923,537.402832 403.811523,526.382019 
	C398.865234,524.141235 395.544800,516.856018 396.993439,511.587219 
	C399.783264,501.440186 400.378326,490.488220 408.483612,480.946106 
	C439.962677,496.818848 471.747894,512.845947 503.867371,529.002441 
z"/>
<path fill="#F8F8F8" opacity="1.000000" stroke="none" 
	d="
M800.694336,796.298828 
	C809.518738,806.953308 818.199280,817.268616 826.582642,827.820068 
	C828.058655,829.677673 829.057434,832.547852 828.981323,834.908752 
	C828.064575,863.376038 826.537415,891.827454 825.918213,920.299316 
	C825.382996,944.908813 825.807129,969.539246 825.051514,994.242188 
	C823.370972,981.596924 821.659912,968.955566 820.015686,956.305603 
	C815.468445,921.319763 810.750916,886.354004 806.562012,851.325134 
	C805.549561,842.858582 802.796448,835.328979 799.105103,827.834595 
	C786.729980,802.709961 774.553833,777.487366 762.760376,751.893738 
	C776.227478,765.814514 787.856323,781.348389 800.694336,796.298828 
z"/>
<path fill="#FBFBFB" opacity="1.000000" stroke="none" 
	d="
M549.459839,896.637695 
	C549.955322,896.867981 550.111938,896.927063 550.273254,896.967346 
	C564.357666,900.489746 573.162048,909.151489 577.894653,923.029541 
	C581.013428,932.175110 586.048706,940.667114 590.804565,950.668762 
	C588.289185,949.190369 586.924072,948.438049 585.609009,947.606445 
	C580.128479,944.140442 574.527710,940.844482 569.215332,937.136230 
	C545.240967,920.401245 519.687439,906.839661 491.722534,898.030029 
	C490.944855,897.785095 490.220245,897.371704 489.057953,896.852295 
	C494.224548,882.643127 499.293732,868.481689 504.607819,854.412842 
	C505.165527,852.936218 507.050964,851.827881 508.523132,850.855774 
	C512.389587,848.302612 516.367981,845.918945 520.195923,843.533691 
	C527.068665,857.745850 518.068359,868.718567 513.064697,880.982971 
	C525.090942,886.144104 537.107056,891.300842 549.459839,896.637695 
z"/>
<path fill="#FCFCFC" opacity="1.000000" stroke="none" 
	d="
M377.607422,712.477417 
	C369.133881,689.918884 360.837799,667.703796 352.464417,645.281555 
	C358.996613,635.788452 371.384552,641.618103 374.964874,649.854675 
	C385.410675,673.885498 394.949310,698.312317 405.495148,722.297363 
	C411.195862,735.262878 413.614502,748.501587 412.972321,762.501160 
	C412.560944,771.468384 412.481476,771.689026 402.398529,775.127136 
	C394.206451,754.389954 385.995667,733.605347 377.607422,712.477417 
z"/>
<path fill="#FCFCFC" opacity="1.000000" stroke="none" 
	d="
M409.210999,685.931641 
	C403.877350,672.813354 398.685364,660.061523 393.371582,647.010620 
	C394.564178,646.053589 395.636566,645.086914 396.811432,644.267212 
	C405.119965,638.470886 410.444153,639.662720 414.784576,649.040466 
	C424.338959,669.683044 433.980927,690.303650 442.771515,711.275085 
	C449.201233,726.614258 451.757904,743.006409 450.274597,759.610840 
	C449.914215,763.645203 445.893036,767.352478 442.854889,772.365540 
	C440.304993,767.372009 438.632599,763.686462 436.610504,760.203979 
	C424.073608,738.612854 415.180664,715.682373 410.835083,691.041138 
	C410.549744,689.423279 409.856262,687.877441 409.210999,685.931641 
z"/>
<path fill="#FCFCFC" opacity="1.000000" stroke="none" 
	d="
M422.352783,635.296814 
	C429.504150,630.865051 429.777100,630.611572 435.167450,636.416382 
	C440.351196,641.998779 445.711334,647.693542 449.561096,654.188293 
	C462.681854,676.323364 475.677246,698.567749 487.609283,721.352356 
	C491.477844,728.739380 492.303833,737.854248 493.701111,746.314209 
	C494.089905,748.668152 491.542145,751.507141 490.073425,754.707947 
	C462.037262,717.890686 439.816254,678.676819 418.566132,638.162170 
	C419.269257,637.625549 420.659302,636.564758 422.352783,635.296814 
z"/>
<path fill="#FAFAFA" opacity="1.000000" stroke="none" 
	d="
M338.484772,314.474762 
	C351.092438,294.117279 368.573334,279.182404 387.582184,265.798004 
	C388.636841,265.055420 389.803925,264.330475 391.027832,263.991272 
	C414.972961,257.355377 439.538422,255.940308 464.183105,256.051178 
	C470.703003,256.080505 477.255249,258.275665 483.709473,259.823090 
	C487.224030,260.665710 489.353668,265.629395 488.378845,270.235352 
	C484.371552,269.720184 480.302917,269.262817 476.255005,268.664917 
	C461.965729,266.554260 447.785461,267.692627 433.518280,269.341827 
	C422.548065,270.609924 411.399902,271.753754 401.848846,277.163788 
	C389.540833,284.135437 377.429169,291.847656 366.562164,300.846100 
	C357.684174,308.197510 350.779541,317.924957 342.953430,326.556702 
	C339.064209,330.846313 335.903198,331.115265 329.827728,327.143250 
	C332.637177,323.010925 335.445557,318.880157 338.484772,314.474762 
z"/>
<path fill="#FCFCFC" opacity="1.000000" stroke="none" 
	d="
M333.376404,449.290955 
	C332.219269,451.281799 331.209869,452.910980 330.193634,454.551239 
	C324.314423,450.661407 322.577606,446.398956 324.810486,439.720032 
	C329.118622,426.833618 332.474274,413.628784 336.225159,400.556091 
	C336.620483,399.178253 337.018066,397.801056 337.577087,395.859100 
	C326.377563,398.770020 323.642212,388.510895 317.442566,383.774750 
	C316.831024,383.307556 317.037659,381.612457 317.063812,380.491943 
	C317.297760,370.461609 320.677155,361.329559 325.263367,352.586304 
	C327.203278,348.888000 339.073792,344.146820 343.103394,345.258118 
	C343.263153,345.302185 343.436768,345.337494 343.570923,345.426605 
	C347.398041,347.967957 354.672607,345.055084 355.229218,352.759552 
	C355.582367,357.647705 357.162628,362.876648 355.985901,367.375549 
	C348.851318,394.652344 341.081665,421.763031 333.376404,449.290955 
z"/>
<path fill="#FCFCFC" opacity="1.000000" stroke="none" 
	d="
M505.601868,722.443726 
	C488.940857,697.783936 472.583832,673.353821 455.990143,649.085510 
	C451.974121,643.212097 447.176910,637.872803 442.735718,632.283936 
	C446.879120,626.241882 452.630768,625.521912 458.203064,629.767700 
	C473.680634,641.560669 484.177673,657.745850 495.895386,672.754761 
	C504.132629,683.305725 510.799530,695.086914 518.072937,706.379761 
	C518.836487,707.565308 519.247131,709.147522 519.328491,710.573853 
	C519.697754,717.046143 520.145935,723.533325 520.022583,730.004761 
	C519.971924,732.657227 518.549866,735.283508 517.751648,737.921692 
	C517.145325,737.922913 516.538940,737.924072 515.932556,737.925293 
	C512.561340,732.861084 509.190094,727.796936 505.601868,722.443726 
z"/>
<path fill="#FBFBFB" opacity="1.000000" stroke="none" 
	d="
M551.677368,778.348267 
	C551.034729,783.162659 550.597839,788.015808 549.701172,792.782410 
	C548.350769,799.960266 546.678894,807.077637 545.003540,814.872864 
	C552.612061,816.837280 560.145996,819.362671 567.885864,820.606689 
	C574.716309,821.704590 579.129822,825.130127 583.025879,830.520569 
	C589.699036,839.753296 596.904968,848.600891 604.572571,858.494568 
	C573.553833,847.000549 543.622314,835.909363 513.290649,824.669922 
	C526.029053,809.362732 538.650513,794.196045 551.488770,778.723633 
	C551.705566,778.417847 551.677368,778.348267 551.677368,778.348267 
z"/>
<path fill="#FEFEFE" opacity="1.000000" stroke="none" 
	d="
M798.694214,686.307312 
	C788.687378,698.480103 778.750244,710.711182 768.637878,722.795593 
	C764.839905,727.334229 760.732178,731.629333 756.550476,735.820801 
	C755.429138,736.944763 753.247864,738.198547 752.009094,737.835754 
	C738.177734,733.785400 724.018616,733.480957 708.486694,734.195862 
	C720.254639,722.542786 729.202515,709.691956 744.214355,703.894836 
	C746.345520,703.071838 748.606140,702.248413 750.848022,702.114502 
	C756.282471,701.790039 760.758423,700.219482 763.162476,694.867004 
	C766.102173,688.322144 771.045593,686.279480 778.210632,686.804260 
	C784.725586,687.281494 791.360168,686.125427 798.276184,685.988892 
	C798.610352,686.288452 798.694214,686.307312 798.694214,686.307312 
z"/>
<path fill="#080808" opacity="1.000000" stroke="none" 
	d="
M340.258026,808.944214 
	C346.653381,810.019897 352.637207,811.451721 358.691315,811.872986 
	C365.899231,812.374451 373.286011,811.197571 380.378265,812.233582 
	C388.406799,813.406433 395.676697,810.021057 403.355225,810.066589 
	C417.315002,810.149353 430.330933,814.003418 441.551147,822.314209 
	C446.938202,826.304382 451.348267,831.662109 455.936218,836.644104 
	C456.932556,837.726135 457.589294,840.331848 456.963837,841.363831 
	C456.307556,842.446777 453.860199,843.057129 452.301025,842.890015 
	C413.988831,838.784302 377.058899,829.349487 341.786407,813.726196 
	C339.659332,812.784119 337.919373,810.968018 335.999268,809.558533 
	C336.183502,809.122620 336.367706,808.686707 336.551941,808.250793 
	C337.660492,808.451538 338.769043,808.652283 340.258026,808.944214 
z"/>
<path fill="#FBFBFB" opacity="1.000000" stroke="none" 
	d="
M523.291260,661.685547 
	C527.780640,667.507019 531.811096,673.252319 536.369873,678.542297 
	C542.321838,685.448975 545.250061,693.739868 547.495911,702.218018 
	C548.464294,705.873413 547.431396,710.058960 547.307617,714.003723 
	C546.632751,714.211548 545.957886,714.419373 545.283081,714.627258 
	C543.377197,713.002747 541.223633,711.589539 539.618652,709.708435 
	C536.596558,706.166321 533.620911,702.528931 531.097229,698.626404 
	C514.683350,673.244873 491.930206,653.884521 469.884247,633.843872 
	C467.672089,631.832886 465.480530,629.799377 463.319366,627.813049 
	C468.067688,618.736694 472.568695,617.530151 480.497437,623.431580 
	C490.781708,631.086182 501.212494,638.593140 510.979889,646.871948 
	C515.714294,650.884827 519.081177,656.511169 523.291260,661.685547 
z"/>
<path fill="#FDFDFD" opacity="1.000000" stroke="none" 
	d="
M866.012085,593.739197 
	C864.617004,600.708069 865.321411,608.287231 858.856689,612.469421 
	C854.551819,615.254456 849.492493,616.905212 844.680542,618.838989 
	C843.977295,619.121704 842.549988,618.391113 841.833679,617.725098 
	C837.336365,613.543396 833.375671,608.640320 828.420776,605.127930 
	C820.556091,599.552734 822.088440,592.143005 823.927429,585.108582 
	C826.510986,575.226013 826.995850,575.328735 837.102478,574.589172 
	C843.834290,574.096497 850.569519,573.639404 857.308228,573.256287 
	C861.347900,573.026550 866.027832,577.761230 866.159607,582.300415 
	C866.265625,585.953125 866.076111,589.614319 866.012085,593.739197 
z"/>
<path fill="#FCFCFC" opacity="1.000000" stroke="none" 
	d="
M374.266602,472.880798 
	C382.311676,475.619476 389.975006,478.259613 397.999359,481.024139 
	C395.675568,487.859955 393.845459,494.573639 391.040283,500.851654 
	C389.891541,503.422607 386.940582,505.671539 384.275970,506.983002 
	C378.424438,509.863068 372.322571,513.275452 365.650421,508.956787 
	C364.509857,508.218536 363.295593,507.062500 362.866974,505.836670 
	C357.612976,490.809601 349.828949,477.182556 340.363281,464.455902 
	C339.685699,463.544861 339.172394,462.511627 337.890167,460.388367 
	C350.613708,464.769409 362.249298,468.775818 374.266602,472.880798 
z"/>
<path fill="#F9F9F9" opacity="1.000000" stroke="none" 
	d="
M503.166107,633.794312 
	C495.245453,628.280273 487.619324,622.970398 479.957062,617.635315 
	C486.363922,611.248352 488.876221,611.171509 495.729095,616.585571 
	C500.685516,620.501404 505.910248,624.081360 510.815247,628.057861 
	C527.595032,641.661377 544.186340,655.499634 561.085815,668.951538 
	C565.052246,672.108826 563.695312,675.795715 562.688538,678.788208 
	C561.568298,682.117798 558.708923,684.921814 556.289307,687.675781 
	C556.001404,688.003479 553.294983,686.939636 552.429260,685.913574 
	C543.121399,674.881653 534.360168,663.358643 524.611755,652.738892 
	C518.275635,645.836426 510.558868,640.201294 503.166107,633.794312 
z"/>
<path fill="#FAFAFA" opacity="1.000000" stroke="none" 
	d="
M786.815308,664.764404 
	C782.678894,667.256531 778.850159,669.555908 775.021423,671.855347 
	C774.579102,671.514954 774.136841,671.174622 773.694519,670.834290 
	C775.854309,667.889343 777.405151,663.969849 780.281921,662.172363 
	C791.270813,655.306335 799.041016,646.235107 803.190552,633.883606 
	C805.509644,626.980713 808.551025,620.321655 811.226624,613.536865 
	C813.004089,609.029785 818.181458,607.739563 821.850586,610.981201 
	C824.095398,612.964417 826.247192,615.052612 828.470337,617.060974 
	C831.934143,620.190002 832.196411,623.985779 830.207642,627.815308 
	C827.530823,632.969482 824.588806,638.000793 821.481628,642.908081 
	C820.483154,644.485046 818.746033,645.742371 817.099731,646.736694 
	C807.147217,652.747620 797.123108,658.639771 786.815308,664.764404 
z"/>
<path fill="#FBFBFB" opacity="1.000000" stroke="none" 
	d="
M806.563599,553.150574 
	C798.348633,551.599731 790.302917,550.844421 782.845398,548.338867 
	C779.588135,547.244446 776.302979,542.915161 775.311401,539.409729 
	C774.466919,536.424133 776.918579,532.728333 780.722168,530.912537 
	C787.589539,527.634155 794.266052,523.957031 801.035400,520.471985 
	C804.970825,518.445923 812.041016,521.887512 812.933167,526.282104 
	C814.249756,532.767212 815.877380,539.222961 816.613037,545.776489 
	C816.927795,548.579834 815.330078,551.597900 814.537842,554.772583 
	C811.450378,554.145325 809.211121,553.690369 806.563599,553.150574 
z"/>
<path fill="#F9F9F9" opacity="1.000000" stroke="none" 
	d="
M848.534058,464.629303 
	C846.573059,479.077362 845.117859,493.152679 842.599915,507.035248 
	C841.480591,513.206482 844.151978,516.267456 848.343445,519.314819 
	C850.011108,520.527283 851.537476,521.934021 853.124390,523.249146 
	C849.357483,527.922241 844.355286,528.541016 840.410217,525.154663 
	C836.000732,521.369690 829.441345,518.174255 827.963562,513.430664 
	C826.504395,508.746857 830.323425,502.472687 831.651917,496.854828 
	C834.171509,486.200256 836.591492,475.521912 839.001648,464.841858 
	C840.213318,459.472687 843.367126,456.786591 849.146667,456.967194 
	C848.966614,459.375214 848.786987,461.776672 848.534058,464.629303 
z"/>
<path fill="#F6F6F6" opacity="1.000000" stroke="none" 
	d="
M775.213989,468.437897 
	C768.301636,474.553253 761.800171,481.630157 751.616943,481.218536 
	C741.993591,463.799286 738.095459,444.977417 733.768311,426.333069 
	C740.877563,422.730286 741.171082,423.184601 743.015076,429.653595 
	C746.687439,442.536896 750.856079,455.278717 754.968506,468.559601 
	C758.799072,468.043243 762.459839,468.232147 765.515015,466.963135 
	C769.233337,465.418701 772.097656,465.739349 775.213989,468.437897 
z"/>
<path fill="#F8F8F8" opacity="1.000000" stroke="none" 
	d="
M861.291809,536.361450 
	C860.452087,540.297180 859.850830,543.864624 859.249573,547.432129 
	C858.924927,547.391235 858.600220,547.350403 858.275574,547.309509 
	C858.275574,541.055176 858.275574,534.800842 858.275574,528.134460 
	C859.702454,528.055176 861.097412,527.977661 862.864441,527.879456 
	C862.386658,530.784912 861.958496,533.389038 861.291809,536.361450 
z"/>
<path fill="#F6F6F6" opacity="1.000000" stroke="none" 
	d="
M813.756653,662.761963 
	C812.506775,664.597534 811.522461,666.163025 810.456482,667.858337 
	C807.630798,659.697144 814.492981,657.195679 819.088684,653.370850 
	C817.399841,656.411133 815.710999,659.451416 813.756653,662.761963 
z"/>
<path fill="#FEFEFE" opacity="1.000000" stroke="none" 
	d="
M798.649414,686.307495 
	C798.567017,686.212646 798.455139,686.085449 798.321350,685.988586 
	C798.187622,685.891724 798.031921,685.825134 797.885864,685.745361 
	C798.020874,685.824097 798.155945,685.902832 798.492615,686.144409 
	C798.694214,686.307312 798.610352,686.288452 798.649414,686.307495 
z"/>
<path fill="#FBFBFB" opacity="1.000000" stroke="none" 
	d="
M551.702148,778.455200 
	C551.992249,778.598145 552.285767,778.703796 552.579346,778.809448 
	C552.333496,778.879517 552.087646,778.949585 551.759583,778.683960 
	C551.677368,778.348267 551.705566,778.417847 551.702148,778.455200 
z"/>
</svg>